<svg width="28" height="28" viewBox="0 0 28 28" fill="none" xmlns="http://www.w3.org/2000/svg">
<path d="M23.333 21.292C23.8163 21.292 24.208 21.6837 24.208 22.167C24.2078 22.6501 23.8161 23.042 23.333 23.042H4.66699C4.18385 23.042 3.79217 22.6501 3.79199 22.167C3.79199 21.6837 4.18374 21.292 4.66699 21.292H23.333ZM23.333 13.125C23.8163 13.125 24.208 13.5168 24.208 14C24.208 14.4832 23.8163 14.875 23.333 14.875H4.66699C4.18374 14.875 3.79199 14.4832 3.79199 14C3.79199 13.5168 4.18374 13.125 4.66699 13.125H23.333ZM23.333 4.95801C23.8161 4.95801 24.2078 5.34991 24.208 5.83301C24.208 6.31626 23.8163 6.70801 23.333 6.70801H4.66699C4.18374 6.70801 3.79199 6.31626 3.79199 5.83301C3.79217 5.34991 4.18385 4.95801 4.66699 4.95801H23.333Z" fill="black"/>
</svg>
