<svg width="20" height="20" viewBox="0 0 20 20" fill="none" xmlns="http://www.w3.org/2000/svg">
<path d="M18.4292 17.2847C18.7701 17.2314 19.0038 16.9117 18.9507 16.5708L16.98 3.95849H18.3335C18.6785 3.95832 18.9584 3.67852 18.9585 3.33349C18.9585 2.98842 18.6785 2.70866 18.3335 2.70849L1.6665 2.70849C1.32133 2.7085 1.0415 2.98832 1.0415 3.33349C1.04156 3.67862 1.32137 3.95849 1.6665 3.95849H3.02002L1.04932 16.5708C0.996227 16.9117 1.22897 17.2313 1.56982 17.2847C1.91086 17.338 2.2304 17.1042 2.28369 16.7632L3.6333 8.12549L16.3657 8.12549L17.7153 16.7632C17.7686 17.1041 18.0883 17.3377 18.4292 17.2847ZM4.28467 3.95849L15.7153 3.95849L16.1714 6.87549L3.82861 6.87549L4.28467 3.95849Z" fill="black"/>
</svg>
