<svg width="24" height="24" viewBox="0 0 24 24" fill="none" xmlns="http://www.w3.org/2000/svg">
<path d="M15.0254 13.25C15.4698 13.25 15.8409 13.2497 16.1455 13.2705C16.4626 13.2921 16.7624 13.3387 17.0527 13.459C17.7264 13.7381 18.2619 14.2736 18.541 14.9473C18.6613 15.2376 18.7079 15.5374 18.7295 15.8545C18.7378 15.9756 18.7402 16.1074 18.7432 16.25H21C21.4142 16.25 21.75 16.5858 21.75 17C21.75 17.4142 21.4142 17.75 21 17.75H18.7432C18.7402 17.8926 18.7378 18.0244 18.7295 18.1455C18.7079 18.4626 18.6613 18.7624 18.541 19.0527C18.2619 19.7264 17.7264 20.2619 17.0527 20.541C16.7624 20.6613 16.4626 20.7079 16.1455 20.7295C15.8409 20.7503 15.4698 20.75 15.0254 20.75H14.9746C14.5302 20.75 14.1591 20.7503 13.8545 20.7295C13.5374 20.7079 13.2376 20.6613 12.9473 20.541C12.2736 20.2619 11.7381 19.7264 11.459 19.0527C11.3387 18.7624 11.2921 18.4626 11.2705 18.1455C11.2497 17.8409 11.25 17.4698 11.25 17.0254V16.9746C11.25 16.5302 11.2497 16.1591 11.2705 15.8545C11.2921 15.5374 11.3387 15.2376 11.459 14.9473C11.7381 14.2736 12.2736 13.7381 12.9473 13.459C13.2376 13.3387 13.5374 13.2921 13.8545 13.2705C14.1591 13.2497 14.5302 13.25 14.9746 13.25H15.0254ZM15 14.75C14.524 14.75 14.2045 14.7507 13.957 14.7676C13.7163 14.784 13.5986 14.8128 13.5215 14.8447C13.2152 14.9716 12.9716 15.2152 12.8447 15.5215C12.8128 15.5986 12.784 15.7163 12.7676 15.957C12.7507 16.2045 12.75 16.524 12.75 17C12.75 17.476 12.7507 17.7955 12.7676 18.043C12.784 18.2837 12.8128 18.4014 12.8447 18.4785C12.9716 18.7848 13.2152 19.0284 13.5215 19.1553C13.5986 19.1872 13.7163 19.216 13.957 19.2324C14.2045 19.2493 14.524 19.25 15 19.25C15.476 19.25 15.7955 19.2493 16.043 19.2324C16.2837 19.216 16.4014 19.1872 16.4785 19.1553C16.7848 19.0284 17.0284 18.7848 17.1553 18.4785C17.1872 18.4014 17.216 18.2837 17.2324 18.043C17.2493 17.7955 17.25 17.476 17.25 17C17.25 16.524 17.2493 16.2045 17.2324 15.957C17.216 15.7163 17.1872 15.5986 17.1553 15.5215C17.0284 15.2152 16.7848 14.9716 16.4785 14.8447C16.4014 14.8128 16.2837 14.784 16.043 14.7676C15.7955 14.7507 15.476 14.75 15 14.75ZM9 16.25C9.41421 16.25 9.75 16.5858 9.75 17C9.75 17.4142 9.41421 17.75 9 17.75H3C2.58579 17.75 2.25 17.4142 2.25 17C2.25 16.5858 2.58579 16.25 3 16.25H9ZM9.02539 3.25C9.46979 3.24999 9.84093 3.24973 10.1455 3.27051C10.4626 3.29215 10.7624 3.33872 11.0527 3.45899C11.7264 3.73809 12.2619 4.27358 12.541 4.94727C12.6613 5.23762 12.7079 5.53744 12.7295 5.85449C12.7503 6.15907 12.75 6.53021 12.75 6.97461V7.02539C12.75 7.46979 12.7503 7.84093 12.7295 8.14551C12.7079 8.46256 12.6613 8.76238 12.541 9.05274C12.2619 9.72642 11.7264 10.2619 11.0527 10.541C10.7624 10.6613 10.4626 10.7079 10.1455 10.7295C9.84093 10.7503 9.46979 10.75 9.02539 10.75H8.97461C8.53021 10.75 8.15907 10.7503 7.85449 10.7295C7.53744 10.7079 7.23762 10.6613 6.94727 10.541C6.27358 10.2619 5.73809 9.72642 5.45898 9.05274C5.33872 8.76238 5.29215 8.46256 5.27051 8.14551C5.26224 8.02439 5.25983 7.89257 5.25684 7.75H3C2.58579 7.75 2.25 7.41421 2.25 7C2.25 6.58579 2.58579 6.25 3 6.25H5.25684C5.25983 6.10743 5.26224 5.97562 5.27051 5.85449C5.29215 5.53744 5.33872 5.23762 5.45898 4.94727C5.73809 4.27358 6.27358 3.73809 6.94727 3.45899C7.23762 3.33872 7.53744 3.29215 7.85449 3.27051C8.15907 3.24973 8.53021 3.24999 8.97461 3.25H9.02539ZM9 4.75C8.52397 4.75 8.20446 4.75071 7.95703 4.76758C7.71632 4.784 7.59864 4.81277 7.52148 4.84473C7.2152 4.97159 6.97159 5.2152 6.84473 5.52149C6.81277 5.59864 6.784 5.71632 6.76758 5.95703C6.75071 6.20446 6.75 6.52397 6.75 7C6.75 7.47603 6.75071 7.79554 6.76758 8.04297C6.784 8.28368 6.81277 8.40136 6.84473 8.47852C6.97159 8.7848 7.2152 9.02841 7.52148 9.15527C7.59864 9.18723 7.71632 9.216 7.95703 9.23242C8.20446 9.24929 8.52397 9.25 9 9.25C9.47603 9.25 9.79554 9.24929 10.043 9.23242C10.2837 9.216 10.4014 9.18723 10.4785 9.15527C10.7848 9.02841 11.0284 8.7848 11.1553 8.47852C11.1872 8.40136 11.216 8.28368 11.2324 8.04297C11.2493 7.79554 11.25 7.47603 11.25 7C11.25 6.52397 11.2493 6.20446 11.2324 5.95703C11.216 5.71632 11.1872 5.59864 11.1553 5.52149C11.0284 5.2152 10.7848 4.97159 10.4785 4.84473C10.4014 4.81277 10.2837 4.784 10.043 4.76758C9.79554 4.75071 9.47603 4.75 9 4.75ZM21 6.25C21.4142 6.25 21.75 6.58579 21.75 7C21.75 7.41421 21.4142 7.75 21 7.75H15C14.5858 7.75 14.25 7.41421 14.25 7C14.25 6.58579 14.5858 6.25 15 6.25H21Z" fill="white"/>
</svg>
