<svg width="20" height="20" viewBox="0 0 20 20" fill="none" xmlns="http://www.w3.org/2000/svg">
<path d="M9.16712 1.04199C4.67981 1.04199 1.04212 4.67968 1.04212 9.16699C1.0423 13.6542 4.67992 17.292 9.16712 17.292C11.1859 17.2919 13.0313 16.5537 14.4523 15.335L17.8917 18.7754C18.1358 19.0193 18.5315 19.0194 18.7755 18.7754C19.0195 18.5314 19.0194 18.1357 18.7755 17.8916L15.3361 14.4512C16.5542 13.0304 17.292 11.1853 17.2921 9.16699C17.2921 4.67979 13.6543 1.04217 9.16712 1.04199ZM9.16712 2.29199C12.9639 2.29217 16.0421 5.37014 16.0421 9.16699C16.0419 12.9637 12.9638 16.0418 9.16712 16.042C5.37027 16.042 2.2923 12.9638 2.29212 9.16699C2.29212 5.37003 5.37016 2.29199 9.16712 2.29199Z" fill="black" fill-opacity="0.5"/>
</svg>
