<svg width="16" height="16" viewBox="0 0 16 16" fill="none" xmlns="http://www.w3.org/2000/svg">
<path fill-rule="evenodd" clip-rule="evenodd" d="M8.23532 0.833662C8.48235 0.834325 8.69795 0.837639 8.88333 0.85421C9.1294 0.876216 9.3588 0.923863 9.5816 1.03948C9.66967 1.08516 9.75387 1.13792 9.8334 1.19724C10.0347 1.34733 10.1776 1.53294 10.3047 1.74475C10.4245 1.94428 10.5461 2.19525 10.6894 2.4909L11.0171 3.16683H14C14.2761 3.16683 14.5 3.39069 14.5 3.66683C14.5 3.94298 14.2761 4.16683 14 4.16683H13.4701L13.0843 10.4069C13.0329 11.2388 12.9921 11.899 12.9085 12.4263C12.8227 12.9671 12.6853 13.4175 12.4107 13.8114C12.1593 14.1718 11.8358 14.476 11.4606 14.7045C11.0505 14.9544 10.5925 15.0636 10.0475 15.1159C9.516 15.1668 8.85453 15.1668 8.021 15.1668H7.96927C7.13467 15.1668 6.47239 15.1668 5.94027 15.1158C5.39457 15.0634 4.93611 14.954 4.52569 14.7037C4.15025 14.4747 3.82661 14.17 3.57541 13.809C3.30081 13.4144 3.16391 12.9634 3.07877 12.4218C2.99575 11.8938 2.95585 11.2327 2.90555 10.3996L2.52929 4.16683H2C1.72386 4.16683 1.5 3.94298 1.5 3.66683C1.5 3.39069 1.72386 3.16683 2 3.16683H5.04703L5.32639 2.55398C5.4661 2.24746 5.58461 1.98746 5.70261 1.78065C5.82782 1.56118 5.97019 1.36848 6.17385 1.21224C6.25424 1.15057 6.33959 1.09567 6.42905 1.04811C6.6557 0.92759 6.89007 0.877976 7.14173 0.85507C7.37887 0.833496 7.6646 0.833496 8.00147 0.833496L8.23532 0.833662ZM12.4681 4.16683H3.53111L3.90218 10.3135C3.95438 11.1782 3.99193 11.7914 4.06664 12.2666C4.14008 12.7337 4.24293 13.0176 4.39621 13.2378C4.56809 13.4848 4.78952 13.6932 5.04641 13.85C5.2755 13.9896 5.56505 14.0752 6.03577 14.1204C6.51457 14.1663 7.12893 14.1668 7.9952 14.1668C8.86033 14.1668 9.4738 14.1663 9.952 14.1205C10.4221 14.0754 10.7114 13.99 10.9403 13.8505C11.1971 13.6941 11.4185 13.486 11.5904 13.2394C11.7437 13.0196 11.8468 12.7361 11.9208 12.2696C11.9961 11.7952 12.0345 11.1829 12.0878 10.3194L12.4681 4.16683ZM6.33333 6.50016C6.60947 6.50016 6.83333 6.72403 6.83333 7.00016V11.0002C6.83333 11.2763 6.60947 11.5002 6.33333 11.5002C6.05719 11.5002 5.83333 11.2763 5.83333 11.0002V7.00016C5.83333 6.72403 6.05719 6.50016 6.33333 6.50016ZM9.66667 6.50016C9.9428 6.50016 10.1667 6.72403 10.1667 7.00016V11.0002C10.1667 11.2763 9.9428 11.5002 9.66667 11.5002C9.39053 11.5002 9.16667 11.2763 9.16667 11.0002V7.00016C9.16667 6.72403 9.39053 6.50016 9.66667 6.50016ZM8.29946 1.83397L7.77203 1.83384C7.54215 1.83477 7.3722 1.83822 7.2324 1.85095C7.0554 1.86706 6.9654 1.89548 6.89853 1.93105C6.85787 1.95267 6.81907 1.97762 6.78253 2.00565C6.72247 2.05176 6.65925 2.12185 6.57118 2.27621C6.4784 2.43882 6.37843 2.65698 6.22737 2.98839L6.14603 3.16683H9.9058L9.7988 2.94608C9.6438 2.62634 9.54133 2.41604 9.44727 2.25939C9.35807 2.11075 9.29507 2.04322 9.23553 1.99884C9.1994 1.97187 9.16113 1.94789 9.12107 1.92712C9.0552 1.89294 8.96693 1.86568 8.79427 1.85024C8.66427 1.83861 8.50777 1.83505 8.29946 1.83397Z" fill="#161616"/>
</svg>
