<svg width="24" height="24" viewBox="0 0 24 24" fill="none" xmlns="http://www.w3.org/2000/svg">
<path d="M5.19445 14.8369C7.44668 13.4959 10.078 13.0061 12.6046 13.3623C13.5234 13.4919 14.4187 13.734 15.2833 14.0869C15.6668 14.2434 15.851 14.681 15.6944 15.0645C15.5379 15.4478 15.1003 15.632 14.7169 15.4756C13.9669 15.1694 13.1918 14.9599 12.3956 14.8477C10.1963 14.5375 7.91111 14.9655 5.96203 16.126C5.79418 16.2259 5.60975 16.3302 5.4171 16.4395C4.7045 16.8437 3.8722 17.316 3.2921 17.8838C2.93204 18.2362 2.77858 18.5273 2.75402 18.752C2.73458 18.9303 2.78014 19.2242 3.23058 19.6533C4.26635 20.6401 5.31861 21.2499 6.59093 21.25H12.5001C12.9143 21.25 13.2501 21.5858 13.2501 22C13.2501 22.4142 12.9143 22.75 12.5001 22.75H6.59093C4.77273 22.7499 3.36682 21.8553 2.19543 20.7393C1.51662 20.0925 1.17807 19.3646 1.26281 18.5889C1.34255 17.8593 1.78161 17.2634 2.24328 16.8115C2.98144 16.0891 4.05888 15.4812 4.7716 15.0791C4.93421 14.9874 5.07817 14.9062 5.19445 14.8369ZM18.5001 14.25C18.9143 14.25 19.2501 14.5858 19.2501 15V17.75H22.0001C22.4143 17.75 22.7501 18.0858 22.7501 18.5C22.7501 18.9142 22.4143 19.25 22.0001 19.25H19.2501V22C19.2501 22.4142 18.9143 22.75 18.5001 22.75C18.0859 22.75 17.7501 22.4142 17.7501 22V19.25H15.0001C14.5859 19.25 14.2501 18.9142 14.2501 18.5C14.2501 18.0858 14.5859 17.75 15.0001 17.75H17.7501V15C17.7501 14.5858 18.0859 14.25 18.5001 14.25ZM12.0001 1.25C14.8996 1.25 17.2501 3.6005 17.2501 6.5C17.2501 9.39949 14.8996 11.75 12.0001 11.75C9.10062 11.75 6.75011 9.39949 6.75011 6.5C6.75011 3.6005 9.10062 1.25 12.0001 1.25ZM12.0001 2.75C9.92904 2.75 8.25011 4.42893 8.25011 6.5C8.25011 8.57107 9.92904 10.25 12.0001 10.25C14.0712 10.25 15.7501 8.57107 15.7501 6.5C15.7501 4.42893 14.0712 2.75 12.0001 2.75Z" fill="white"/>
</svg>
