<svg width="20" height="20" viewBox="0 0 20 20" fill="none" xmlns="http://www.w3.org/2000/svg">
<path d="M7.199 18.4591C8.13389 19.1409 9.46959 19.1363 10.3748 18.3732L10.3865 18.3634L10.3972 18.3536C12.1145 16.7617 15.5201 13.553 17.241 11.8497L17.2527 11.839L17.2635 11.8273C17.5076 11.5597 17.6694 11.2205 17.7058 10.8468L17.7088 10.8165V10.7862C17.7088 10.141 17.6461 8.63514 17.4168 7.36436C17.2981 6.70635 17.1769 6.13442 16.9344 5.71397C16.8022 5.48487 16.6297 5.28949 16.3992 5.14073C16.2557 5.04817 16.1013 4.98381 15.9422 4.93565C15.9577 4.86364 15.9722 4.79164 15.9842 4.71983C16.1744 3.57557 15.907 2.39244 14.9754 1.63194C14.1468 0.955725 13.1913 0.949909 12.3103 1.17295C11.5309 1.37036 10.7132 1.77228 9.96463 2.13975C9.89165 2.17558 9.8194 2.21124 9.74783 2.2462C8.90143 2.65965 8.14738 3.00435 7.46853 3.11436C6.83477 3.21706 6.32111 3.10834 5.86306 2.64268C5.62107 2.39657 5.22541 2.39292 4.97927 2.63487C4.73317 2.87686 4.72951 3.27253 4.97146 3.51866C5.77721 4.33811 6.733 4.4994 7.66873 4.34776C8.55929 4.20338 9.4758 3.76974 10.2957 3.36924C10.3614 3.33712 10.4274 3.30519 10.492 3.27354C11.273 2.891 11.9716 2.54833 12.617 2.38487C13.2902 2.21438 13.7808 2.27044 14.1853 2.60069C14.6728 2.99872 14.8905 3.67391 14.7508 4.51475C14.611 5.35513 14.1159 6.28817 13.2888 7.03624C13.033 7.26781 13.0134 7.66312 13.2449 7.91905C13.4765 8.17503 13.8717 8.19455 14.1277 7.96299C14.7294 7.41875 15.2015 6.7823 15.5271 6.11631C15.6252 6.14037 15.6841 6.1664 15.7215 6.19053C15.7633 6.21755 15.8056 6.25697 15.8523 6.33799C15.9677 6.53801 16.0604 6.88836 16.1863 7.58604C16.3935 8.73432 16.4563 10.1266 16.4588 10.7491C16.4467 10.8246 16.4115 10.9024 16.3484 10.9747C14.6423 12.6625 11.2738 15.8364 9.55935 17.4259C9.12219 17.7861 8.44261 17.8063 7.95291 17.461C6.99895 16.6494 6.07952 15.7783 5.16287 14.9093C4.70232 14.4727 4.24268 14.0362 3.77908 13.6085C3.44437 13.174 3.46793 12.5956 3.82888 12.2091C5.63274 10.4423 8.88994 7.42243 10.742 5.74229C10.8245 5.67875 10.9229 5.63824 11.0271 5.6251C11.3061 5.62681 11.7146 5.65196 12.1765 5.67979C12.3723 5.69158 12.5778 5.7035 12.7869 5.71495C13.1315 5.73379 13.4262 5.46973 13.4451 5.1251C13.464 4.78047 13.1999 4.48581 12.8553 4.4669C12.6735 4.45695 12.4855 4.44588 12.2996 4.43467C11.801 4.40462 11.3156 4.37505 10.9959 4.3751H10.9685L10.9422 4.37706C10.5717 4.40912 10.2262 4.55291 9.9451 4.78038L9.93142 4.79112L9.91775 4.80284C8.06108 6.48684 4.76907 9.53825 2.9451 11.3253L2.92947 11.3409C2.09962 12.2141 2.09283 13.5267 2.83767 14.4327L2.86502 14.4659L2.89627 14.4952C3.34408 14.9078 3.80253 15.3418 4.26834 15.7833C5.20692 16.6729 6.17739 17.5936 7.16287 18.4308L7.18045 18.4454L7.199 18.4591ZM8.53103 11.2765C8.87606 11.2764 9.15586 10.9965 9.15603 10.6515C9.15603 10.3063 8.87617 10.0265 8.53103 10.0265H8.52322C8.17804 10.0265 7.89822 10.3063 7.89822 10.6515C7.8984 10.9965 8.17815 11.2765 8.52322 11.2765H8.53103ZM10.6082 13.3595C10.9531 13.3592 11.2332 13.0795 11.2332 12.7345C11.2332 12.3895 10.9531 12.1097 10.6082 12.1095L6.44119 12.1095C6.09601 12.1095 5.81619 12.3893 5.81619 12.7345C5.81619 13.0797 6.09601 13.3595 6.44119 13.3595L10.6082 13.3595ZM8.53299 15.4425C8.87814 15.4425 9.15799 15.1627 9.15799 14.8175C9.15781 14.4725 8.87804 14.1925 8.53299 14.1925H8.52517C8.1801 14.1925 7.90035 14.4725 7.90017 14.8175C7.90017 15.1627 8.18 15.4425 8.52517 15.4425H8.53299Z" fill="black"/>
</svg>
