<svg width="20" height="20" viewBox="0 0 20 20" fill="none" xmlns="http://www.w3.org/2000/svg">
<path fill-rule="evenodd" clip-rule="evenodd" d="M15.8498 12.8827C15.5998 12.641 15.2082 12.6493 14.9665 12.8993C14.7248 13.1409 14.7332 13.541 14.9832 13.7826C15.1165 13.9076 15.3332 14.0827 15.5332 14.241L15.5832 14.2743C15.7832 14.4409 16.0082 14.6076 16.2165 14.7826L12.4998 14.7909C12.1582 14.7909 11.8748 15.0743 11.8748 15.4159C11.8748 15.7576 12.1582 16.0409 12.4998 16.0409H16.2165C16.0082 16.2243 15.7915 16.3909 15.5832 16.5576L15.5332 16.591C15.3332 16.7493 15.1165 16.9243 14.9832 17.0493C14.7332 17.291 14.7332 17.691 14.9665 17.9326C15.2082 18.1826 15.5998 18.191 15.8498 17.9493C15.9248 17.8743 16.0748 17.7493 16.2998 17.5743L16.3498 17.5326C16.5498 17.3743 16.7915 17.191 17.0165 16.9993C17.2582 16.791 17.5082 16.5659 17.7082 16.3326C17.8082 16.2242 17.8998 16.0909 17.9748 15.9493C18.0498 15.8159 18.1165 15.6326 18.1165 15.4159C18.1165 15.1993 18.0415 15.0159 17.9748 14.8826C17.8998 14.7409 17.7998 14.6076 17.7082 14.4993C17.5165 14.266 17.2582 14.0409 17.0165 13.8326C16.7915 13.6409 16.5582 13.4577 16.3498 13.2993L16.2998 13.2576C16.0748 13.0826 15.9248 12.9577 15.8498 12.8827ZM9.99984 15.6243C7.8165 15.6243 5.8415 15.9327 4.3665 16.4243C4.0415 16.5327 3.68318 16.3576 3.57484 16.0326C3.46651 15.6993 3.64151 15.3493 3.96651 15.241C4.09985 15.1993 4.23317 15.1493 4.37484 15.1159V11.4077C2.48317 11.1077 1.0415 9.47427 1.0415 7.49927C1.0415 5.31593 2.8165 3.54093 4.99984 3.54093C5.55817 3.54093 6.08317 3.65761 6.56651 3.86595C7.24984 2.67428 8.53317 1.87427 9.99984 1.87427C11.4665 1.87427 12.7498 2.67428 13.4332 3.86595C13.9165 3.65761 14.4415 3.54093 14.9998 3.54093C17.1832 3.54093 18.9582 5.31593 18.9582 7.49927C18.9582 9.6826 17.1832 11.4576 14.9998 11.4576C14.6582 11.4576 14.3748 11.1743 14.3748 10.8326C14.3748 10.4909 14.6582 10.2076 14.9998 10.2076C16.4915 10.2076 17.7082 8.99093 17.7082 7.49927C17.7082 6.0076 16.4915 4.79093 14.9998 4.79093C14.4415 4.79093 13.9248 4.95764 13.4915 5.24931C13.3332 5.35764 13.1332 5.38261 12.9498 5.32428C12.7665 5.25761 12.6248 5.11597 12.5582 4.93264C12.1832 3.88264 11.1832 3.12427 9.99984 3.12427C8.8165 3.12427 7.8165 3.88264 7.4415 4.93264C7.37483 5.11597 7.23316 5.25761 7.04983 5.32428C6.8665 5.38261 6.6665 5.35764 6.50817 5.24931C6.07484 4.95764 5.55817 4.79093 4.99984 4.79093C3.50817 4.79093 2.2915 6.0076 2.2915 7.49927C2.2915 8.99093 3.50817 10.2076 4.99984 10.2076C5.3415 10.2076 5.62484 10.4909 5.62484 10.8326V14.7993C6.93317 14.5243 8.42484 14.3743 9.99984 14.3743C10.3415 14.3743 10.6248 14.6576 10.6248 14.9993C10.6248 15.3409 10.3415 15.6243 9.99984 15.6243Z" fill="#0373ED"/>
</svg>
