<svg width="20" height="20" viewBox="0 0 20 20" fill="none" xmlns="http://www.w3.org/2000/svg">
<path d="M7.29785 3.125C8.12663 3.12501 8.92177 3.454 9.50781 4.04004L11.9248 6.45801L15.043 6.45801C15.7917 6.45798 16.4165 6.45875 16.9121 6.52539C17.4352 6.59573 17.9076 6.75035 18.2871 7.12988C18.6665 7.50941 18.8213 7.9818 18.8916 8.50488C18.9582 9.00043 18.958 9.62457 18.958 10.373L18.958 12.96C18.958 13.7087 18.9582 14.3334 18.8916 14.8291C18.8212 15.3521 18.6666 15.8246 18.2871 16.2041C17.9076 16.5835 17.4352 16.7383 16.9121 16.8086C16.4165 16.8752 15.7917 16.875 15.043 16.875L7.45703 16.875C6.7083 16.875 6.08354 16.8752 5.58789 16.8086C5.06481 16.7383 4.59242 16.5835 4.21289 16.2041C3.83342 15.8246 3.67876 15.3521 3.6084 14.8291C3.54176 14.3335 3.54197 13.7087 3.54199 12.96V11.875H1.66699C1.32181 11.875 1.04199 11.5952 1.04199 11.25C1.04199 10.9048 1.32181 10.625 1.66699 10.625H3.54199L3.54199 9.41406C3.27944 9.32558 3.02608 9.19656 2.79395 9.02246L2.54199 8.83301C2.26585 8.6259 2.20989 8.23415 2.41699 7.95801C2.62417 7.68217 3.01597 7.62599 3.29199 7.83301L3.54395 8.02246C4.10658 8.44444 4.89429 8.3889 5.3916 7.8916C5.63568 7.64752 6.03131 7.64752 6.27539 7.8916L7.52539 9.1416C7.74145 9.3575 8.09148 9.35737 8.30762 9.1416C8.52378 8.92544 8.52378 8.57456 8.30762 8.3584L6.6416 6.69238C6.39752 6.44831 6.39752 6.05169 6.6416 5.80762C6.88564 5.56391 7.2814 5.56382 7.52539 5.80762L8.17578 6.45801H10.1572L8.62402 4.92383C8.27241 4.57221 7.79511 4.37501 7.29785 4.375L1.66699 4.375C1.32181 4.375 1.04199 4.09518 1.04199 3.75C1.04199 3.40482 1.32181 3.125 1.66699 3.125L7.29785 3.125ZM9.38672 7.70801C9.8871 8.41215 9.82355 9.39408 9.19238 10.0254C8.48812 10.7297 7.34593 10.7296 6.6416 10.0254L5.78125 9.16504C5.47523 9.35221 5.138 9.47097 4.79199 9.52344V12.917C4.79199 13.7201 4.79258 14.2596 4.84668 14.6621C4.89838 15.0467 4.98808 15.2117 5.09668 15.3203C5.20528 15.4288 5.37052 15.5177 5.75488 15.5693C6.15738 15.6234 6.69689 15.625 7.5 15.625L15 15.625C15.8031 15.625 16.3426 15.6234 16.7451 15.5693C17.1295 15.5177 17.2947 15.4288 17.4033 15.3203C17.5119 15.2117 17.6016 15.0467 17.6533 14.6621C17.7074 14.2596 17.708 13.7201 17.708 12.917V10.417C17.708 9.61365 17.7074 9.07343 17.6533 8.6709C17.6016 8.28668 17.5118 8.12225 17.4033 8.01367C17.2947 7.90508 17.1297 7.81537 16.7451 7.76367C16.3426 7.70961 15.8031 7.70801 15 7.70801L9.38672 7.70801ZM11.25 9.58301C12.4006 9.58301 13.333 10.5164 13.333 11.667C13.3328 12.8174 12.4005 13.75 11.25 13.75C10.0995 13.75 9.16717 12.8174 9.16699 11.667C9.16699 10.5164 10.0994 9.58301 11.25 9.58301ZM11.25 10.833C10.7898 10.833 10.417 11.2068 10.417 11.667C10.4172 12.1271 10.7899 12.5 11.25 12.5C11.7101 12.5 12.0828 12.1271 12.083 11.667C12.083 11.2068 11.7102 10.833 11.25 10.833Z" fill="white"/>
</svg>
