<svg width="24" height="24" viewBox="0 0 24 24" fill="none" xmlns="http://www.w3.org/2000/svg">
<path d="M16.0002 22.751C18.0289 22.751 19.1476 22.7506 19.9435 21.9277C20.7495 21.1098 20.7502 19.973 20.7502 17.9102V12.0449C20.7502 10.825 20.7497 10.1536 20.3957 9.51465C20.0377 8.86889 19.4411 8.50233 18.4523 7.89648L17.4533 7.28418C17.439 7.27534 17.4236 7.26753 17.4094 7.25879C17.7922 6.11992 17.8501 4.96396 17.592 3.96387C17.2984 2.82663 16.5774 1.84763 15.4357 1.43945C14.3047 1.03524 13.094 1.31086 12.0832 1.95215C11.0685 2.59599 10.1917 3.64078 9.65839 4.92383C9.53359 5.2241 9.43332 5.52679 9.35468 5.82813L8.77265 5.9834C8.2437 6.12532 7.79785 6.24514 7.43866 6.37793C7.05887 6.51837 6.71936 6.69282 6.42499 6.97363C6.12828 7.25669 5.94267 7.58489 5.79511 7.9541C5.65757 8.29829 5.53618 8.72346 5.39472 9.21875L3.81659 14.7441C3.57408 15.593 3.37005 16.3064 3.28925 16.8945C3.20333 17.52 3.23803 18.119 3.58124 18.6768C3.74559 18.9438 3.99382 19.1705 4.24042 19.3555C4.49687 19.5478 4.80111 19.7312 5.12519 19.8984C5.77274 20.2325 6.55164 20.5301 7.31171 20.7266C7.71275 20.8302 8.12212 20.5885 8.22577 20.1875C8.32935 19.7865 8.08864 19.3771 7.68769 19.2734C7.03161 19.1039 6.3573 18.8464 5.81269 18.5654C5.54057 18.425 5.31286 18.2843 5.14081 18.1553C4.95982 18.0195 4.88175 17.9265 4.85956 17.8906C4.76936 17.7441 4.7145 17.5432 4.77558 17.0986C4.84011 16.629 5.01308 16.019 5.2746 15.1035L6.82733 9.66406C6.98122 9.12533 7.08294 8.77527 7.18866 8.51074C7.28756 8.26331 7.37025 8.14435 7.46015 8.05859C7.55237 7.97064 7.68509 7.88618 7.95819 7.78516C8.24486 7.67915 8.62377 7.57672 9.19355 7.42383L10.3664 7.10938C10.9683 6.94785 11.3699 6.84015 11.6906 6.78613C11.9957 6.73475 12.1704 6.74305 12.3146 6.7793C12.4713 6.81871 12.6228 6.89713 12.8644 7.09277C12.7635 7.15435 12.6574 7.21691 12.548 7.28418L11.548 7.89648C10.5591 8.50243 9.96171 8.86875 9.6037 9.51465C9.2497 10.1526 9.25019 10.825 9.25019 12.0439L9.25019 17.9092C9.25019 19.972 9.25 21.1089 10.051 21.9219C10.852 22.7489 11.9702 22.749 14.0002 22.749H16.0002V22.751ZM16.0705 6.50391C15.7049 6.34092 15.3688 6.25005 15.0002 6.25C14.7579 6.25 14.5291 6.28869 14.2971 6.36133C13.7719 5.86819 13.2992 5.47989 12.6799 5.32422C12.2642 5.21977 11.8646 5.23639 11.4416 5.30762C11.3324 5.32601 11.218 5.3495 11.0978 5.37598C11.5252 4.414 12.1828 3.66552 12.8869 3.21875C13.6249 2.75055 14.3512 2.64533 14.9309 2.85254C15.5 3.05603 15.94 3.56491 16.1398 4.33887C16.2987 4.95436 16.2905 5.7087 16.0705 6.50391ZM13.9992 21.248C12.2575 21.248 11.4723 21.2329 11.1232 20.873C10.7642 20.5091 10.7492 19.701 10.7492 17.9082L10.7492 12.043C10.7492 10.9741 10.7563 10.5292 10.9152 10.2412C11.0762 9.95321 11.4652 9.7058 12.3322 9.1748L13.3332 8.56055C14.2239 8.01271 14.6672 7.74902 15.0002 7.74902L14.9992 7.74805C15.1336 7.74811 15.2852 7.79264 15.4777 7.87988C15.0905 8.5186 14.5998 9.02986 14.0793 9.37598C13.7345 9.60538 13.641 10.0712 13.8703 10.416C14.0997 10.7607 14.5655 10.8543 14.9103 10.625C15.6329 10.1444 16.28 9.4585 16.7775 8.62891L17.6672 9.17383C18.5331 9.70477 18.9232 9.95125 19.0832 10.2402C19.243 10.5282 19.2492 10.9734 19.2492 12.042L19.2492 17.9072C19.2492 19.6997 19.2341 20.5079 18.8703 20.877C18.5263 21.2329 17.741 21.248 15.9992 21.248H13.9992Z" fill="white"/>
</svg>
