<svg width="20" height="20" viewBox="0 0 20 20" fill="none" xmlns="http://www.w3.org/2000/svg">
<path fill-rule="evenodd" clip-rule="evenodd" d="M10.2956 1.04196C10.6044 1.04278 10.8739 1.04693 11.1057 1.06764C11.4132 1.09515 11.6999 1.15471 11.9785 1.29922C12.0886 1.35633 12.1938 1.42228 12.2932 1.49642C12.5447 1.68404 12.7234 1.91606 12.8823 2.18082C13.0321 2.43023 13.1841 2.74394 13.3632 3.1135L13.7728 3.95841H17.5C17.8452 3.95841 18.125 4.23824 18.125 4.58342C18.125 4.9286 17.8452 5.20842 17.5 5.20842H16.8376L16.3554 13.0085C16.2911 14.0484 16.2401 14.8736 16.1356 15.5327C16.0283 16.2087 15.8567 16.7717 15.5133 17.2642C15.1992 17.7146 14.7947 18.0948 14.3257 18.3805C13.8132 18.6928 13.2407 18.8294 12.5593 18.8948C11.895 18.9584 11.0682 18.9584 10.0263 18.9584H9.96158L9.62174 18.9583C8.73637 18.9576 8.01658 18.9513 7.42534 18.8947C6.74322 18.8292 6.17013 18.6923 5.65712 18.3795C5.18781 18.0932 4.78326 17.7123 4.46926 17.2612C4.12601 16.7679 3.95489 16.2042 3.84847 15.5272C3.74468 14.8671 3.69481 14.0407 3.63194 12.9993L3.16161 5.20842H2.5C2.15483 5.20842 1.875 4.9286 1.875 4.58342C1.875 4.23824 2.15483 3.95841 2.5 3.95841H6.31027L6.65946 3.19237L6.76127 2.96951C6.89333 2.68187 7.01173 2.4325 7.12972 2.22569C7.28624 1.95136 7.4642 1.71048 7.71879 1.51517C7.81927 1.43809 7.92597 1.36947 8.03778 1.31002C8.32109 1.15937 8.61408 1.09735 8.92858 1.06872C9.225 1.04175 9.58217 1.04175 10.0032 1.04175L10.2956 1.04196ZM15.5852 5.20842H4.41388L4.87772 12.8917C4.94298 13.9726 4.98992 14.7391 5.0833 15.3331C5.1751 15.917 5.30366 16.2718 5.49526 16.5472C5.71011 16.8558 5.9869 17.1164 6.30801 17.3123C6.59438 17.4869 6.95632 17.5939 7.54471 17.6503C8.14322 17.7077 8.91117 17.7084 9.994 17.7084C11.0754 17.7084 11.8422 17.7077 12.44 17.6505C13.0277 17.5941 13.3892 17.4874 13.6754 17.313C13.9963 17.1175 14.2731 16.8574 14.488 16.5492C14.6797 16.2743 14.8085 15.92 14.901 15.3369C14.9951 14.7438 15.0431 13.9785 15.1097 12.8991L15.5852 5.20842ZM10.3758 2.29234L9.71654 2.29217C9.42918 2.29334 9.21673 2.29765 9.04192 2.31357C8.82075 2.33371 8.70825 2.36923 8.62467 2.41369C8.57383 2.44072 8.52533 2.47191 8.47967 2.50694C8.4045 2.56457 8.32552 2.65219 8.21544 2.84514C8.09947 3.0484 7.97451 3.32111 7.78568 3.73537L7.684 3.95842H12.3837L12.2499 3.68248C12.0562 3.2828 11.9281 3.01993 11.8106 2.82412C11.6991 2.63832 11.6202 2.5539 11.5459 2.49842C11.5007 2.46472 11.4528 2.43474 11.4028 2.40878C11.3204 2.36605 11.2102 2.33197 10.9943 2.31267C10.8318 2.29814 10.6362 2.29369 10.3758 2.29234Z" fill="black"/>
</svg>
