<svg width="20" height="20" viewBox="0 0 20 20" fill="none" xmlns="http://www.w3.org/2000/svg">
<path d="M10.8771 1.04199C11.6256 1.04197 12.2497 1.0418 12.7452 1.1084C13.2683 1.17873 13.7407 1.33345 14.1202 1.71289C14.4998 2.09242 14.6544 2.56477 14.7247 3.08789C14.7914 3.58354 14.7921 4.2083 14.7921 4.95703V6.0459C15.116 6.0503 15.403 6.05981 15.6574 6.08106C16.1383 6.12126 16.5578 6.20541 16.9464 6.40527C17.4117 6.64459 17.8109 6.99229 18.1075 7.41895C18.3571 7.77791 18.4888 8.17906 18.5792 8.6416C18.6665 9.08806 18.7241 9.64212 18.795 10.3252L18.8009 10.3867C18.8861 11.2068 18.9548 11.8678 18.9581 12.4023C18.9615 12.9528 18.8977 13.44 18.6691 13.8877C18.4007 14.4132 17.9866 14.8524 17.4767 15.1582C17.0458 15.4165 16.5599 15.5242 15.9972 15.5752C15.6109 15.6102 15.1565 15.618 14.6222 15.6211C14.6729 15.8503 14.7157 16.0529 14.7443 16.2324C14.7938 16.5432 14.8142 16.8385 14.757 17.1318C14.6253 17.8055 14.2111 18.3971 13.6075 18.7168C13.3389 18.859 13.0494 18.9116 12.7511 18.9355C12.463 18.9587 12.1074 18.958 11.6827 18.958H8.31751C7.89288 18.958 7.53721 18.9587 7.24915 18.9355C6.95085 18.9116 6.66132 18.859 6.3927 18.7168C5.78917 18.3971 5.37495 17.8055 5.24329 17.1318C5.18603 16.8385 5.20648 16.5432 5.25598 16.2324C5.28457 16.053 5.3264 15.8503 5.37708 15.6211C4.84319 15.618 4.38913 15.6102 4.00305 15.5752C3.44039 15.5242 2.9544 15.4165 2.52356 15.1582C2.01364 14.8524 1.59958 14.4132 1.33118 13.8877C1.10252 13.44 1.03875 12.9528 1.04212 12.4023C1.04541 11.8678 1.11419 11.2068 1.19934 10.3867L1.2052 10.3252C1.27611 9.64212 1.33374 9.08806 1.42102 8.6416C1.51148 8.17906 1.64315 7.77791 1.8927 7.41895C2.18932 6.99229 2.58855 6.64459 3.05384 6.40527C3.4425 6.20542 3.86194 6.12126 4.3429 6.08106C4.59728 6.05981 4.88425 6.0503 5.20813 6.0459V4.95703C5.20811 4.2083 5.20888 3.58354 5.27552 3.08789C5.34586 2.56477 5.50047 2.09242 5.88001 1.71289C6.25954 1.33345 6.73192 1.17873 7.25501 1.1084C7.75055 1.0418 8.3747 1.04197 9.12317 1.04199H10.8771ZM8.3429 13.958C7.72074 13.958 7.57353 13.9681 7.46204 14.0098C7.2779 14.0785 7.10921 14.2164 6.99134 14.4131C6.91465 14.5412 6.86567 14.7217 6.71692 15.3672C6.60678 15.8452 6.53111 16.173 6.49036 16.4287C6.45008 16.6816 6.45361 16.8095 6.46985 16.8926C6.53442 17.2228 6.73124 17.4818 6.97766 17.6123C7.02786 17.6389 7.12144 17.6712 7.34876 17.6895C7.58085 17.7081 7.88643 17.708 8.3429 17.708H11.6574C12.1138 17.708 12.4194 17.7081 12.6515 17.6895C12.8788 17.6712 12.9724 17.6389 13.0226 17.6123C13.269 17.4818 13.4658 17.2228 13.5304 16.8926C13.5466 16.8095 13.5502 16.6816 13.5099 16.4287C13.4691 16.173 13.3935 15.8452 13.2833 15.3672C13.1346 14.7217 13.0856 14.5412 13.0089 14.4131C12.891 14.2164 12.7224 14.0785 12.5382 14.0098C12.4267 13.9681 12.2796 13.958 11.6574 13.958H8.3429ZM6.12805 7.29199C5.37936 7.29199 4.85612 7.29204 4.44739 7.32617C4.0468 7.35964 3.81026 7.42288 3.6261 7.51758C3.33923 7.66511 3.09688 7.87705 2.91907 8.13281C2.80737 8.29356 2.7209 8.50607 2.64759 8.88086C2.57231 9.26577 2.52008 9.76442 2.44544 10.4834C2.35614 11.3435 2.29498 11.9438 2.29212 12.4102C2.28932 12.8679 2.34566 13.1259 2.44446 13.3193C2.60409 13.6318 2.85298 13.8981 3.16614 14.0859C3.36504 14.2052 3.63619 14.2866 4.11536 14.3301C4.51517 14.3663 5.01262 14.3708 5.67493 14.3721C5.74034 14.1448 5.81366 13.9465 5.91907 13.7705C6.17459 13.344 6.56092 13.012 7.02454 12.8389C7.37609 12.7076 7.77178 12.7075 8.24915 12.708H11.7511C12.2285 12.7075 12.6242 12.7076 12.9757 12.8389C13.4393 13.012 13.8257 13.3441 14.0812 13.7705C14.1865 13.9464 14.259 14.1449 14.3243 14.3721C14.9871 14.3708 15.4849 14.3663 15.8849 14.3301C16.3641 14.2866 16.6352 14.2052 16.8341 14.0859C17.1473 13.8981 17.3962 13.6318 17.5558 13.3193C17.6546 13.1259 17.7109 12.8679 17.7081 12.4102C17.7053 11.9438 17.6441 11.3435 17.5548 10.4834C17.4802 9.76442 17.4279 9.26577 17.3527 8.88086C17.2793 8.50607 17.1929 8.29356 17.0812 8.13281C16.9034 7.87705 16.661 7.66511 16.3741 7.51758C16.19 7.42288 15.9534 7.35964 15.5529 7.32617C15.1441 7.29204 14.6209 7.29199 13.8722 7.29199H6.12805ZM15.0079 9.16699C15.468 9.16717 15.8409 9.53987 15.8409 10C15.8409 10.4601 15.468 10.8328 15.0079 10.833H15.0001C14.5399 10.833 14.1671 10.4602 14.1671 10C14.1671 9.53976 14.5399 9.16699 15.0001 9.16699H15.0079ZM9.16712 2.29199C8.36377 2.29199 7.82355 2.29256 7.42102 2.34668C7.03681 2.39836 6.87238 2.48818 6.7638 2.59668C6.6552 2.70528 6.5655 2.87033 6.5138 3.25488C6.45973 3.65737 6.45813 4.19692 6.45813 5V6.04199H13.5421V5C13.5421 4.19692 13.5405 3.65737 13.4865 3.25488C13.4348 2.87033 13.345 2.70528 13.2365 2.59668C13.1279 2.48818 12.9634 2.39836 12.5792 2.34668C12.1767 2.29256 11.6365 2.29199 10.8331 2.29199H9.16712Z" fill="white"/>
</svg>
